<svg width="24" height="24" viewBox="0 0 24 24" fill="none" xmlns="http://www.w3.org/2000/svg">
<path d="M10.5605 11.1335V23.072C10.5489 23.0718 10.5371 23.0724 10.5254 23.072C10.0588 23.0637 9.62892 22.9265 9.2373 22.6599L5.0625 19.8093C4.72937 19.5761 4.467 19.2841 4.27539 18.9343C4.09219 18.5845 4.00007 18.2091 4 17.8093V7.95972C4.00001 7.5854 4.08077 7.23422 4.24219 6.90698L10.5605 11.1335Z" fill="#FFD400"/>
<path d="M19.7246 5.44702C19.9079 5.78035 20 6.13888 20 6.52222V16.3845C20 16.7927 19.8957 17.1801 19.6875 17.5466C19.4875 17.9133 19.2079 18.205 18.8496 18.4216L11.8496 22.7214C11.4515 22.9651 11.022 23.0818 10.5605 23.072V11.1208L19.7041 5.40991C19.7109 5.42229 19.718 5.43449 19.7246 5.44702Z" fill="#F75858"/>
<path d="M20 16.3845C20 16.7927 19.8957 17.1801 19.6875 17.5466C19.4875 17.9133 19.2079 18.205 18.8496 18.4216L11.8496 22.7214C11.4515 22.9651 11.022 23.0818 10.5605 23.072V17.322L19.7041 11.6111C19.7135 11.6215 20 11.4373 20 11.4373V16.3845Z" fill="#8166E1"/>
<path d="M10.5605 17.3347V23.072C10.5489 23.0718 10.5371 23.0724 10.5254 23.072C10.0588 23.0637 9.62892 22.9265 9.2373 22.6599L5.0625 19.8093C4.72937 19.5761 4.467 19.2841 4.27539 18.9343C4.09219 18.5845 4.00007 18.2091 4 17.8093V12.9685L10.5605 17.3347Z" fill="#BDAAFF"/>
<path d="M4.24219 6.90665C4.26041 6.86972 4.27952 6.83264 4.2998 6.7963C4.49979 6.42977 4.77945 6.13791 5.1377 5.9213L12.0996 1.64689C12.4996 1.39689 12.9337 1.27625 13.4004 1.28458C13.8669 1.28466 14.296 1.41746 14.6875 1.684L18.9746 4.6088C19.2872 4.8252 19.5293 5.09298 19.7031 5.40958L10.5605 11.1205V11.1332L4.24219 6.90665Z" fill="#FFA43D"/>
</svg>
